<?xml version="1.0" standalone="no"?><!DOCTYPE svg PUBLIC "-//W3C//DTD SVG 1.1//EN" "http://www.w3.org/Graphics/SVG/1.1/DTD/svg11.dtd"><svg t="1693909234159" class="icon" viewBox="0 0 1024 1024" version="1.1" xmlns="http://www.w3.org/2000/svg" p-id="7386" width="72" height="72" xmlns:xlink="http://www.w3.org/1999/xlink"><path d="M564.829091 205.963636l12.8 46.545455a232.727273 232.727273 0 0 1 286.021818 162.909091l46.545455-12.8a281.367273 281.367273 0 0 0-345.367273-196.654546zM591.36 302.545455l12.8 46.545454a131.723636 131.723636 0 0 1 162.909091 93.090909l46.545454-12.567273A180.363636 180.363636 0 0 0 591.36 302.545455z m-262.050909 190.836363h-71.214546l-139.636363 202.472727v65.629091h139.636363v73.309091h71.214546v-72.378182h48.174545v-55.854545h-48.174545z m-71.214546 212.247273H175.010909l83.083636-121.483636z m327.68-179.432727c46.545455 0 71.447273 20.014545 71.447273 59.810909h80.989091q2.094545-116.363636-165.934545-116.363637-162.909091 11.403636-167.796364 186.181819 3.723636 171.752727 167.796364 181.527272a684.450909 684.450909 0 0 0 81.221818-3.956363 273.221818 273.221818 0 0 0 78.894545-11.636364V644.654545h-144.523636v59.81091h69.818182v75.403636c-3.723636 1.163636-5.12 1.163636-3.723637 0a354.443636 354.443636 0 0 1-67.723636 7.68c-65.396364-1.396364-98.909091-44.450909-100.072727-129.396364s34.210909-129.861818 99.607272-131.025454z" fill="#8a8a8a" p-id="7387"></path></svg>