<svg xmlns="http://www.w3.org/2000/svg" version="1.1" xmlns:xlink="http://www.w3.org/1999/xlink" xmlns:svgjs="http://svgjs.dev/svgjs" width="2000" height="1247" viewBox="0 0 2000 1247"><g transform="matrix(1,0,0,1,-1.2121212121212466,0.504858299595071)"><svg viewBox="0 0 396 247" data-background-color="#ffffff" preserveAspectRatio="xMidYMid meet" height="1247" width="2000" xmlns="http://www.w3.org/2000/svg" xmlns:xlink="http://www.w3.org/1999/xlink"><g id="tight-bounds" transform="matrix(1,0,0,1,0.2400000000000091,-0.09999999999999432)"><svg viewBox="0 0 395.52 247.2" height="247.2" width="395.52"><g><svg></svg></g><g><svg viewBox="0 0 395.52 247.2" height="247.2" width="395.52"><mask id="3197cfba-27a9-43d3-8128-254ee400219a"><rect width="640" height="400" fill="white"></rect><g transform="matrix(1,0,0,1,131.68034999999998,37.08)"><svg viewBox="0 0 132.1593 173.04" height="173.04" width="132.1593"><g><svg viewBox="0 0 132.1593 173.04" height="173.04" width="132.1593"><g><svg viewBox="0 0 132.1593 173.04" height="173.04" width="132.1593"><g><svg viewBox="0 0 132.1593 173.04" height="173.04" width="132.1593"><g id="SvgjsG1402"><svg viewBox="0 0 132.1593 173.04" height="173.04" width="132.1593" id="SvgjsSvg1401"><g><svg viewBox="0 0 132.1593 173.04" height="173.04" width="132.1593"><g transform="matrix(1,0,0,1,0,0)"><svg width="132.1593" viewBox="0.9000000953674316 -37 31.55000114440918 41" height="173.04" data-palette-color="#332885"><path d="M10.25-33L10.25-4.6 28.45-4.6 28.45 0 4.9 0 4.9-33 10.25-33Z" opacity="1" transform="matrix(1,0,0,1,0,0)" fill="black" class="wordmark-text-0" id="SvgjsPath1400" stroke-width="7" stroke="black" stroke-linejoin="round"></path></svg></g></svg></g></svg></g></svg></g></svg></g></svg></g></svg></g></mask><g transform="matrix(1,0,0,1,131.68034999999998,37.08)"><svg viewBox="0 0 132.1593 173.04" height="173.04" width="132.1593"><g><svg viewBox="0 0 132.1593 173.04" height="173.04" width="132.1593"><g><svg viewBox="0 0 132.1593 173.04" height="173.04" width="132.1593"><g><svg viewBox="0 0 132.1593 173.04" height="173.04" width="132.1593"><g id="textblocktransform"><svg viewBox="0 0 132.1593 173.04" height="173.04" width="132.1593" id="textblock"><g><svg viewBox="0 0 132.1593 173.04" height="173.04" width="132.1593"><g transform="matrix(1,0,0,1,0,0)"><svg width="132.1593" viewBox="0.9000000953674316 -37 31.55000114440918 41" height="173.04" data-palette-color="#332885"><path d="M10.25-33L10.25-4.6 28.45-4.6 28.45 0 4.9 0 4.9-33 10.25-33Z" opacity="1" transform="matrix(1,0,0,1,0,0)" fill="#332885" class="wordmark-text-0" data-fill-palette-color="primary" id="text-0"></path></svg></g></svg></g></svg></g></svg></g></svg></g></svg></g></svg></g><g mask="url(#3197cfba-27a9-43d3-8128-254ee400219a)"><g transform="matrix(2.7244444444444444, 0, 0, 2.7244444444444444, 75.15581164889865, 1)"><svg xmlns="http://www.w3.org/2000/svg" xmlns:xlink="http://www.w3.org/1999/xlink" version="1.1" x="0" y="0" viewBox="4.998403072357178 5 90.0030746459961 90" enable-background="new 0 0 100 100" xml:space="preserve" height="90" width="90.0030746459961" class="icon-none" data-fill-palette-color="accent" id="none"><g fill="#332885" data-fill-palette-color="accent"><path fill="#332885" d="M50 5C25.3 5 5.2 25.1 5 49.7c-0.1 12 4.5 23.4 13 31.9 8.4 8.6 19.7 13.3 31.7 13.4 0 0 0.3 0 0.3 0 24.7 0 44.8-20.1 45-44.7C95.2 25.5 75.1 5.2 50 5zM50 88.9h-0.3c-10.4-0.1-20.1-4.2-27.5-11.6C15 70 11 60.2 11.1 49.8c0.1-21.3 17.6-38.7 39.2-38.7 21.5 0.1 38.8 17.7 38.7 39.2C88.8 71.6 71.3 88.9 50 88.9z" data-fill-palette-color="accent"></path><path fill="#332885" d="M71 45.1c-6.3-3.8-13.5-5.8-21-5.8-7.4 0-14.7 2-21 5.8-1.4 0.8-1.8 2.6-1 4 0.8 1.4 2.6 1.8 4 1 5.4-3.3 11.6-5 17.9-5 6.3 0 12.6 1.7 17.9 5 0.5 0.3 1 0.4 1.5 0.4 1 0 1.9-0.5 2.5-1.4C72.8 47.7 72.3 45.9 71 45.1z" data-fill-palette-color="accent"></path><path fill="#332885" d="M75.3 33.5C67.6 29.2 58.8 27 50 27c-8.8 0-17.6 2.2-25.3 6.5-1.4 0.8-1.9 2.5-1.1 3.9 0.8 1.4 2.5 1.9 3.9 1.1 6.8-3.8 14.6-5.8 22.5-5.8 7.9 0 15.6 2 22.5 5.8 0.4 0.2 0.9 0.4 1.4 0.4 1 0 2-0.5 2.5-1.5C77.2 36 76.7 34.2 75.3 33.5z" data-fill-palette-color="accent"></path><path fill="#332885" d="M66.6 56.6C61.8 53.1 56 51.2 50 51.2c-6 0-11.8 1.9-16.6 5.4-1.3 0.9-1.6 2.8-0.6 4.1 0.6 0.8 1.5 1.2 2.3 1.2 0.6 0 1.2-0.2 1.7-0.6C40.6 58.5 45.2 57 50 57c4.8 0 9.4 1.5 13.2 4.3 1.3 0.9 3.1 0.7 4.1-0.6C68.2 59.4 67.9 57.6 66.6 56.6z" data-fill-palette-color="accent"></path><path fill="#332885" d="M50 63.3c-4.4 0-8.5 1.7-11.6 4.8-1.1 1.1-1.1 3 0 4.1 1.1 1.1 3 1.1 4.1 0 2-2 4.6-3.1 7.5-3.1 2.8 0 5.5 1.1 7.5 3.1 0.6 0.6 1.3 0.8 2.1 0.8s1.5-0.3 2.1-0.8c1.1-1.1 1.1-3 0-4.1C58.5 65 54.4 63.3 50 63.3z" data-fill-palette-color="accent"></path></g></svg></g></g></svg></g><defs></defs></svg><rect width="395.52" height="247.2" fill="none" stroke="none" visibility="hidden"></rect></g></svg></g></svg>