<?xml version="1.0" standalone="no"?><!DOCTYPE svg PUBLIC "-//W3C//DTD SVG 1.1//EN" "http://www.w3.org/Graphics/SVG/1.1/DTD/svg11.dtd"><svg t="1710469024448" class="icon" viewBox="0 0 1024 1024" version="1.1" xmlns="http://www.w3.org/2000/svg" p-id="41516" xmlns:xlink="http://www.w3.org/1999/xlink" width="40" height="40"><path d="M960.2 806.4c0 85-200.7 153.9-448.2 153.9S63.9 891.4 63.9 806.4c0-56.2 87.8-105.4 218.8-132.3l1.9 1.9c-97.4 22.5-160.7 59-160.7 100.4 0 68 172 123.2 384.8 123.8h6.6c212.9-0.5 384.9-55.8 384.9-123.8 0-41.3-63.3-77.8-160.7-100.4l1.9-1.9c131 27 218.8 76.2 218.8 132.3z" p-id="41517" fill="#ffffff"></path><path d="M752.6 557.9l0.9 0.8L652 660.2l-0.6 0.6L512 800.2 270.5 558.8l50.2-50.2 49.2 49.3 58.4 58.4c0-16.6 0.5-36.3 1.9-58.4 0.6-9.5 1.5-19.4 2.5-29.8 1.2-12.2 2.9-25 4.8-38.2 0.2-1 0.2-1.9 0.4-2.9C465.2 308.8 565 63.6 908.2 63.6c-233.9 0-297.4 245.3-312.8 423.4-0.1 1.2-0.2 2.4-0.2 3.6-1.2 13-1.9 25.6-2.6 37.7-0.5 10.3-0.9 20.1-1.2 29.6-0.6 24-0.5 45.4-0.1 62.8l81.1-81.1 30.9-30.9 49.3 49.2zM508.7 900.2l3.3 3.3 3.3-3.3h-6.6z" p-id="41518" fill="#ffffff"></path></svg>