<?xml version="1.0" standalone="no"?><!DOCTYPE svg PUBLIC "-//W3C//DTD SVG 1.1//EN" "http://www.w3.org/Graphics/SVG/1.1/DTD/svg11.dtd"><svg t="1710909887783" class="icon" viewBox="0 0 1024 1024" version="1.1" xmlns="http://www.w3.org/2000/svg" p-id="15025" xmlns:xlink="http://www.w3.org/1999/xlink" width="32" height="32"><path d="M828.672 439.552h-64.128v-149.12A226.56 226.56 0 0 0 538.304 64a226.688 226.688 0 0 0-226.368 226.432v149.12h-64A55.936 55.936 0 0 0 192 495.488v408.32c0 30.912 25.024 55.936 55.872 55.936h580.864a55.872 55.872 0 0 0 55.808-56V495.488a55.936 55.936 0 0 0-55.872-55.936z m-258.944 270.72v89.152a7.36 7.36 0 0 1-7.36 7.36h-48a7.424 7.424 0 0 1-7.424-7.36v-89.152a69.44 69.44 0 0 1 31.36-131.456c38.4 0 69.568 31.232 69.568 69.632 0 27.136-15.616 50.304-38.144 61.824z m108.032-270.72H398.848V294.144c0-76.928 62.656-139.52 139.52-139.52s139.392 62.592 139.392 139.52v145.408z" fill="#ffffff" p-id="15026"></path></svg>