<?xml version="1.0" standalone="no"?><!DOCTYPE svg PUBLIC "-//W3C//DTD SVG 1.1//EN" "http://www.w3.org/Graphics/SVG/1.1/DTD/svg11.dtd"><svg t="1710478360602" class="icon" viewBox="0 0 1024 1024" version="1.1" xmlns="http://www.w3.org/2000/svg" p-id="38598" width="48" height="48" xmlns:xlink="http://www.w3.org/1999/xlink"><path d="M927.548952 312.32c53.052952-82.651429 29.793524-193.097143-51.882666-246.784A174.275048 174.275048 0 0 0 721.432381 46.811429l-0.048762-0.195048c-57.441524 18.773333-163.888762 77.433905-199.338667 132.632381a278.28419 278.28419 0 0 0 6.095238 309.150476l306.322286-103.619048V384.731429a175.88419 175.88419 0 0 0 93.135238-72.411429z" fill="#FBBC05" p-id="38599"></path><path d="M102.253714 686.32381a179.248762 179.248762 0 0 0 52.077715 246.784 175.542857 175.542857 0 0 0 154.867809 18.724571v0.195048c57.685333-18.773333 164.571429-77.433905 200.118857-132.632381a277.357714 277.357714 0 0 0-6.095238-309.150477l-307.541333 103.619048v0.048762a176.420571 176.420571 0 0 0-93.42781 72.411429z" fill="#4285F4" p-id="38600"></path><path d="M414.086095 354.596571a194.950095 194.950095 0 0 1-206.60419 182.51581A194.901333 194.901333 0 0 1 24.771048 330.752 194.950095 194.950095 0 0 1 231.375238 148.23619a194.901333 194.901333 0 0 1 182.710857 206.360381z" fill="#EB4335" p-id="38601"></path><path d="M999.228952 674.620952a194.950095 194.950095 0 0 1-206.60419 182.51581 194.901333 194.901333 0 0 1-182.710857-206.360381 194.950095 194.950095 0 0 1 206.60419-182.51581 194.901333 194.901333 0 0 1 182.710857 206.360381z" fill="#34A853" p-id="38602"></path></svg>