<?xml version="1.0" standalone="no"?><!DOCTYPE svg PUBLIC "-//W3C//DTD SVG 1.1//EN" "http://www.w3.org/Graphics/SVG/1.1/DTD/svg11.dtd"><svg t="1710477399923" class="icon" viewBox="0 0 1024 1024" version="1.1" xmlns="http://www.w3.org/2000/svg" p-id="23898" xmlns:xlink="http://www.w3.org/1999/xlink" width="40" height="40"><path d="M798.72 102.4C866.461538 102.4 921.6 157.538462 921.6 225.28c0 106.732308-122.88 245.76-122.88 245.76s-122.88-139.027692-122.88-245.76c0-67.741538 55.138462-122.88 122.88-122.88z m61.44 122.88c0-33.870769-27.569231-61.44-61.44-61.44-33.870769 0-61.44 27.569231-61.44 61.44 0 33.870769 27.569231 61.44 61.44 61.44 33.870769 0 61.44-27.569231 61.44-61.44zM307.2 307.2c113.033846 0 204.8 91.766154 204.8 204.8 0 178.018462-204.8 409.6-204.8 409.6S102.4 690.018462 102.4 512c0-113.033846 91.766154-204.8 204.8-204.8z m102.4 204.8c0-56.32-46.08-102.4-102.4-102.4-56.32 0-102.4 46.08-102.4 102.4 0 56.32 46.08 102.4 102.4 102.4 56.32 0 102.4-46.08 102.4-102.4z m354.776615-29.892923c-23.630769 4.726154-45.292308 15.36-63.40923 31.113846l-27.569231-30.326154a180.775385 180.775385 0 0 1 81.92-41.747692z m-137.452307 128.393846v-11.815385c-0.787692-22.449231 2.756923-44.504615 10.633846-65.378461 1.969231-4.332308 3.938462-8.270769 6.301538-11.815385l36.233846 19.692308c-1.969231 3.150769-3.544615 6.301538-4.726153 9.452308-5.513846 15.753846-8.270769 32.295385-7.483077 49.230769v10.633846z m5.001846 119.847385v-28.356923c0-16.541538-2.363077-33.476923-2.363077-50.018462l40.96-2.756923c2.363077 17.329231 2.363077 35.052308 2.363077 52.775385 0.787692 11.027692 0.787692 21.661538 0 32.295384z m-25.048616 123.392l-24.418461-33.083077 5.513846-3.938462c16.147692-13.390769 28.750769-31.113846 35.446154-51.2l38.990769 13.390769c-9.452308 27.175385-25.993846 50.806154-48.049231 68.923077z m-39.148307 23.748923c-26.387692 11.421538-53.956923 20.48-81.92 26.387692l-9.058462-40.96c25.6-5.12 50.412308-12.996923 74.043077-23.236923z m-124.258462 33.870769c-24.418462 3.938462-52.381538 7.876923-81.92 10.24l-3.544615-40.96c28.356923-2.363077 55.138462-5.907692 78.769231-10.24z" p-id="23899"></path></svg>