<?xml version="1.0" standalone="no"?><!DOCTYPE svg PUBLIC "-//W3C//DTD SVG 1.1//EN" "http://www.w3.org/Graphics/SVG/1.1/DTD/svg11.dtd"><svg t="1693909420319" class="icon" viewBox="0 0 1024 1024" version="1.1" xmlns="http://www.w3.org/2000/svg" p-id="9392" xmlns:xlink="http://www.w3.org/1999/xlink" width="72" height="72"><path d="M764.3 404.5c-1.1 0-2.3-0.1-3.4-0.3-9.8-1.9-16.2-11.4-14.3-21.2 6.5-33.6-0.5-67.8-19.7-96.1-19.2-28.4-48.3-47.6-81.9-54.1-9.8-1.9-16.2-11.4-14.3-21.2 1.9-9.8 11.4-16.2 21.2-14.3 43.1 8.3 80.4 32.9 105 69.3 24.6 36.4 33.6 80.1 25.2 123.3-1.7 8.6-9.3 14.6-17.8 14.6z" p-id="9393" fill="#8a8a8a"></path><path d="M869.2 424.8c-1.1 0-2.3-0.1-3.4-0.3-9.8-1.9-16.2-11.4-14.3-21.2 11.9-61.6-0.9-124.2-36.1-176.2-35.2-52-88.5-87.2-150.1-99.1-9.8-1.9-16.2-11.4-14.3-21.2 1.9-9.8 11.4-16.2 21.2-14.3 71.1 13.7 132.6 54.4 173.2 114.4 40.6 60 55.4 132.2 41.6 203.3-1.8 8.6-9.3 14.6-17.8 14.6z" p-id="9394" fill="#8a8a8a"></path><path d="M764.3 404.5c-1.1 0-2.3-0.1-3.4-0.3-9.8-1.9-16.2-11.4-14.3-21.2 6.5-33.6-0.5-67.8-19.7-96.1-19.2-28.4-48.3-47.6-81.9-54.1-9.8-1.9-16.2-11.4-14.3-21.2 1.9-9.8 11.4-16.2 21.2-14.3 43.1 8.3 80.4 32.9 105 69.3 24.6 36.4 33.6 80.1 25.2 123.3-1.7 8.6-9.3 14.6-17.8 14.6zM690.6 368.9c3.3-16.9 0.1-35.1-10.3-50.5-10.4-15.4-26.1-25.1-43-28.4l-12.8 66.1 66.1 12.8zM466.7 266.6H228c-40.6 0-73.5 32.9-73.5 73.5v266.3c0 40.6 32.9 73.5 73.5 73.5h238.7c40.6 0 73.5-32.9 73.5-73.5V340.1c0-40.6-32.9-73.5-73.5-73.5z m36.6 335.1h-311v-36.2h311v36.2z m0-59.7h-311v-36.2h311V542z m0-68.8h-311V437h311v36.2z" p-id="9395" fill="#8a8a8a"></path><path d="M253.1 284.7c-10 0-18.1-8.1-18.1-18.1V92.2c0-10 8.1-18.1 18.1-18.1s18.1 8.1 18.1 18.1v174.4c-0.1 10-8.2 18.1-18.1 18.1z" p-id="9396" fill="#8a8a8a"></path><path d="M363 277.1c-10 0-18.1-8.1-18.1-18.1v-79.6c0-10 8.1-18.1 18.1-18.1s18.1 8.1 18.1 18.1V259c0 10-8.1 18.1-18.1 18.1z" p-id="9397" fill="#8a8a8a"></path><path d="M419.9 277.1c-10 0-18.1-8.1-18.1-18.1v-79.6c0-10 8.1-18.1 18.1-18.1s18.1 8.1 18.1 18.1V259c0 10-8.1 18.1-18.1 18.1z" p-id="9398" fill="#8a8a8a"></path><path d="M471.9 949.1H227.6c-20.3 0-36.8-16.5-36.8-36.8V678.7c0-20.3 16.5-36.8 36.8-36.8h244.3c20.3 0 36.8 16.5 36.8 36.8v233.6c-0.1 20.3-16.5 36.8-36.8 36.8z" p-id="9399" fill="#8a8a8a"></path></svg>