<svg xmlns="http://www.w3.org/2000/svg" version="1.1" xmlns:xlink="http://www.w3.org/1999/xlink" xmlns:svgjs="http://svgjs.dev/svgjs" width="2000" height="2250" viewBox="0 0 2000 2250"><g transform="matrix(1,0,0,1,0,0)"><svg viewBox="0 0 320 360" data-background-color="#ffffff" preserveAspectRatio="xMidYMid meet" height="2250" width="2000" xmlns="http://www.w3.org/2000/svg" xmlns:xlink="http://www.w3.org/1999/xlink"><g id="tight-bounds" transform="matrix(1,0,0,1,0,0)"><svg viewBox="0 0 320 360" height="360" width="320"><g><svg></svg></g><g><svg viewBox="0 0 320 360" height="360" width="320"><g><path xmlns="http://www.w3.org/2000/svg" d="M297.491 100.645c-12.426-21.51-112.674-79.355-137.491-79.355-24.817 0-125.028 57.845-137.491 79.355-11.591 20.02-11.591 138.726 0 158.746 12.463 21.474 112.674 79.319 137.491 79.319 24.817 0 125.064-57.845 137.491-79.355 11.591-20.02 11.591-138.69 0-158.71zM309.481 93.705c-14.461-24.998-119.469-86.295-149.481-86.295-30.012 0-135.02 61.297-149.481 86.295-14.025 24.199-14.025 148.391 0 172.59 14.461 24.998 119.469 86.295 149.481 86.295 30.012 0 135.02-61.297 149.481-86.259 14.025-24.235 14.025-148.427 0-172.626zM300.906 261.353c-12.753 22.055-115.472 81.317-140.906 81.318-25.434 0-128.153-59.298-140.906-81.354-11.881-20.529-11.881-142.178 0-162.707 12.753-22.019 115.472-81.281 140.906-81.281 25.434 0 128.153 59.298 140.906 81.318 11.881 20.529 11.881 142.178 0 162.706z" fill="#332885" fill-rule="nonzero" stroke="none" stroke-width="1" stroke-linecap="butt" stroke-linejoin="miter" stroke-miterlimit="10" stroke-dasharray="" stroke-dashoffset="0" font-family="none" font-weight="none" font-size="none" text-anchor="none" style="mix-blend-mode: normal" data-fill-palette-color="tertiary"></path></g><g transform="matrix(1,0,0,1,85.45164445560707,90)"><svg viewBox="0 0 149.09671108878587 180" height="180" width="149.09671108878587"><g><svg viewBox="0 0 224 270.428500438147" height="180" width="149.09671108878587"><g transform="matrix(1,0,0,1,0,174.5419317118879)"><svg viewBox="0 0 224 95.88656872625911" height="95.88656872625911" width="224"><g id="textblocktransform"><svg viewBox="0 0 224 95.88656872625911" height="95.88656872625911" width="224" id="textblock"><g><svg viewBox="0 0 224 95.88656872625911" height="95.88656872625911" width="224"><g transform="matrix(1,0,0,1,0,0)"><svg width="224" viewBox="-3.4762496948242188 -32.39128875732422 98.23380279541016 42.05046081542969" height="95.88656872625911" data-palette-color="#ffffff"><path d="M26.166 2.876l-17.254 6.783-12.388-31.512 5.332-2.097 10.899 27.725 12.63-4.965zM55.064-15.028l1.184 14.351c-2.077 1.008-4.073 1.758-5.985 2.25-1.907 0.485-3.687 0.796-5.342 0.933v0c-2.704 0.223-5.151 0.037-7.34-0.558-2.197-0.601-4.098-1.552-5.704-2.851-1.606-1.299-2.884-2.923-3.834-4.871-0.95-1.942-1.526-4.149-1.73-6.62v0c-0.16-1.94-0.069-3.757 0.272-5.451 0.341-1.7 0.878-3.267 1.609-4.698 0.732-1.425 1.646-2.708 2.743-3.849 1.097-1.141 2.319-2.128 3.669-2.962 1.357-0.828 2.817-1.493 4.381-1.997 1.571-0.498 3.2-0.816 4.888-0.955v0c0.551-0.046 1.168-0.073 1.849-0.082 0.682-0.009 1.405 0.004 2.171 0.041 0.772 0.037 1.57 0.101 2.394 0.194 0.83 0.092 1.668 0.227 2.512 0.405v0l-0.53 4.519-0.44 0.267c-1.676-0.618-3.23-0.998-4.66-1.141-1.437-0.149-2.671-0.181-3.7-0.096v0c-1.874 0.155-3.543 0.63-5.01 1.427-1.459 0.796-2.689 1.824-3.688 3.084-0.993 1.266-1.718 2.727-2.177 4.384-0.459 1.65-0.611 3.422-0.455 5.315v0c0.148 1.794 0.561 3.476 1.24 5.045 0.678 1.563 1.592 2.916 2.743 4.058 1.145 1.143 2.498 2.015 4.059 2.615 1.567 0.593 3.318 0.81 5.251 0.651v0c0.817-0.067 1.705-0.208 2.664-0.421 0.965-0.22 1.91-0.522 2.835-0.906v0l-0.962-11.66zM87.643 3.784l-0.803 2.922c-0.971 0.466-1.999 0.796-3.082 0.989-1.081 0.187-2.155 0.283-3.221 0.287-1.066 0.005-2.093-0.07-3.08-0.224-0.988-0.154-1.868-0.337-2.639-0.548v0c-2.186-0.6-4.113-1.538-5.782-2.812-1.675-1.276-3.013-2.798-4.014-4.566-1.001-1.768-1.623-3.744-1.867-5.926-0.25-2.184-0.045-4.482 0.617-6.893v0c0.505-1.839 1.206-3.485 2.104-4.939 0.899-1.461 1.935-2.728 3.108-3.803 1.173-1.074 2.464-1.961 3.872-2.659 1.402-0.7 2.867-1.214 4.395-1.541 1.526-0.321 3.091-0.454 4.694-0.401 1.595 0.058 3.18 0.303 4.755 0.735v0c0.508 0.139 1.074 0.319 1.698 0.539 0.624 0.22 1.289 0.479 1.996 0.777 0.7 0.296 1.418 0.628 2.153 0.995 0.742 0.37 1.479 0.783 2.211 1.24v0l-2.077 4.086-0.504 0.1c-1.353-1.139-2.665-2.028-3.934-2.667-1.269-0.639-2.393-1.093-3.37-1.361v0c-1.697-0.466-3.348-0.571-4.954-0.313-1.605 0.257-3.074 0.808-4.405 1.652-1.339 0.849-2.506 1.963-3.5 3.342-0.994 1.379-1.734 2.953-2.22 4.721v0c-0.478 1.742-0.661 3.465-0.549 5.169 0.105 1.709 0.509 3.296 1.213 4.761 0.71 1.467 1.719 2.754 3.026 3.86 1.312 1.114 2.942 1.938 4.889 2.473v0c1.234 0.339 2.631 0.539 4.191 0.601 1.566 0.064 3.259-0.135 5.079-0.596z" opacity="1" transform="matrix(1,0,0,1,0,0)" fill="#ffffff" class="wordmark-text-0" data-fill-palette-color="quaternary" id="text-0"></path></svg></g></svg></g></svg></g></svg></g><g transform="matrix(1,0,0,1,42.784000000000006,0)"><svg viewBox="0 0 138.432 144.22870837372994" height="144.22870837372994" width="138.432"><g><svg xmlns:x="http://ns.adobe.com/Extensibility/1.0/" xmlns:i="http://ns.adobe.com/AdobeIllustrator/10.0/" xmlns:graph="http://ns.adobe.com/Graphs/1.0/" xmlns="http://www.w3.org/2000/svg" xmlns:xlink="http://www.w3.org/1999/xlink" xmlns:a="http://ns.adobe.com/AdobeSVGViewerExtensions/3.0/" version="1.1" x="0" y="0" viewBox="20.084796905517578 20.299999237060547 59.70011520385742 62.20000076293945" enable-background="new 0 0 100 100" xml:space="preserve" height="144.22870837372994" width="138.432" class="icon-icon-0" data-fill-palette-color="quaternary" id="icon-0"><path d="M78.3 34.3L64.1 21.4c-0.8-0.7-1.8-1.1-2.9-1.1-1.2 0-2.4 0.5-3.3 1.4l-7 7.7c-1.6 1.8-1.5 4.6 0.3 6.2l3.5 3.1-1.9 2.1L47 35.6l-1.4 1.5-1.5-1.3c-1.3-1.2-2.9-1.8-4.6-1.8-1.5 0-3 0.5-4.2 1.4l-3.2-2.9c-0.9-0.8-2.3-0.7-3.1 0.2-0.4 0.4-0.6 1-0.6 1.6s0.3 1.1 0.7 1.5l3.2 2.9c-1.5 2.8-1 6.3 1.4 8.5l1.5 1.3-1.1 1.2 5.9 5.3-2 2.2-3.8-3.4c-0.7-0.6-1.7-1-2.6-1-1.1 0-2.2 0.5-2.9 1.3l-7.6 8.4c-0.7 0.8-1.1 1.8-1 2.8 0.1 1 0.5 2 1.3 2.7l14.9 13.5c0.7 0.6 1.7 1 2.6 1 1.1 0 2.2-0.5 2.9-1.3l7.6-8.4c1.4-1.6 1.3-4.1-0.3-5.5l-3.9-3.5 2-2.2 7.9 7.1-0.6-2.4c-0.8-3.2 0-6.7 2.2-9.1 2.1-2.4 5.3-3.6 8.5-3.2l2.3 0.3L60 47.4l1.9-2.1 3.6 3.2c0.8 0.7 1.8 1.1 2.9 1.1 1.2 0 2.4-0.5 3.3-1.4l7-7.7C80.3 38.7 80.1 35.9 78.3 34.3zM30.2 34.7c-0.1-0.1-0.2-0.3-0.2-0.5s0.1-0.4 0.2-0.5c0.3-0.3 0.7-0.3 1-0.1l3.1 2.8-0.9 1c0 0 0 0.1-0.1 0.1L30.2 34.7zM34.5 38.5l1-1.1c1-1.1 2.5-1.8 4-1.8 1.3 0 2.6 0.5 3.6 1.4l1.5 1.3-8.3 9.2-1.5-1.3C32.6 44.1 32.4 40.7 34.5 38.5zM33.4 64.7l4.8-5.3 5.1 4.6-4.8 5.3L33.4 64.7zM37.5 70.5l-5 5.6-5.1-4.6 5-5.6L37.5 70.5zM29.8 55.1c0.5-0.5 1.1-0.8 1.8-0.8 0.6 0 1.2 0.2 1.6 0.6l3.8 3.4 0 0 0 0-4.8 5.3-5.6-5.1L29.8 55.1zM21.6 65.3c0-0.6 0.2-1.3 0.6-1.7l3.4-3.8 5.6 5.1-5 5.6L22.4 67C21.9 66.5 21.6 65.9 21.6 65.3zM40.8 80.2c-0.9 0.9-2.5 1-3.4 0.2L33.6 77l5-5.6 5.6 5L40.8 80.2zM49 70.1c0 0.6-0.2 1.3-0.6 1.7l-3.2 3.5-5.6-5 4.8-5.3 3.8 3.4C48.6 68.8 48.9 69.4 49 70.1zM44.1 62.8l-5-4.5 2-2.2 5 4.5L44.1 62.8zM55.6 56.2c-2.1 2.3-3.1 5.3-2.9 8.3L36.3 49.7l7.2-8 3.2-3.6 0 0 0.4-0.4 16.3 14.7C60.4 52.6 57.6 54 55.6 56.2zM59 46.3l-5-4.5 1.8-2 5 4.5L59 46.3zM62 43.3l-1.5-1.4-3.6-3.2 5-5.6 5.1 4.6L62 43.3zM62.8 32l4.8-5.3 5.1 4.6L68 36.7 62.8 32zM59 22.8c0.5-0.6 1.3-1 2.1-1 0.7 0 1.4 0.3 1.9 0.7l3.5 3.1L61.7 31 56.1 26 59 22.8zM52 30.5l3.1-3.4 5.6 5.1-5 5.6-3.5-3.1C51.1 33.5 51 31.7 52 30.5zM70.5 47.2c-1 1.1-2.9 1.2-4.1 0.2l-3.4-3.1 5-5.6 5.6 5L70.5 47.2zM77.5 39.5l-2.9 3.2-5.6-5 4.8-5.3 3.4 3.1C78.5 36.5 78.6 38.3 77.5 39.5zM71.2 57.8c-1.7-1.5-3.9-2.4-6.2-2.4-2.6 0-5.1 1.1-6.9 3.1-1.7 1.8-2.5 4.2-2.4 6.7s1.2 4.7 3 6.4c1.7 1.5 3.9 2.4 6.2 2.4 2.6 0 5.1-1.1 6.9-3.1C75.3 67.1 75 61.2 71.2 57.8zM70.7 69.8c-1.5 1.6-3.6 2.6-5.8 2.6-1.9 0-3.8-0.7-5.2-2-1.5-1.4-2.4-3.3-2.6-5.4-0.1-2.1 0.6-4.1 2-5.6 1.5-1.6 3.6-2.6 5.8-2.6 1.9 0 3.8 0.7 5.2 2C73.4 61.8 73.6 66.7 70.7 69.8zM69.7 67.9c0.3 0.3 0.3 0.8 0.1 1.1-1.3 1.4-3 2.1-4.8 2.1-1.5 0-3.1-0.5-4.3-1.6-0.3-0.3-0.3-0.8-0.1-1.1 0.3-0.3 0.8-0.3 1.1-0.1 2 1.8 5.1 1.7 6.9-0.4C68.9 67.6 69.4 67.6 69.7 67.9z" fill="#ffffff" data-fill-palette-color="quaternary"></path></svg></g></svg></g><g></g></svg></g></svg></g></svg></g><defs></defs></svg><rect width="320" height="360" fill="none" stroke="none" visibility="hidden"></rect></g></svg></g></svg>