<?xml version="1.0" standalone="no"?><!DOCTYPE svg PUBLIC "-//W3C//DTD SVG 1.1//EN" "http://www.w3.org/Graphics/SVG/1.1/DTD/svg11.dtd"><svg t="1711522350106" class="icon" viewBox="0 0 1024 1024" version="1.1" xmlns="http://www.w3.org/2000/svg" p-id="6424" xmlns:xlink="http://www.w3.org/1999/xlink" width="32" height="32"><path d="M937.711762 274.326226a43.422282 43.422282 0 0 0-38.747704-6.29298l-209.452903 66.845749v-25.547618a43.350032 43.350032 0 0 0-43.350032-43.350032H108.656855a43.350032 43.350032 0 0 0-43.350032 43.350032v413.465377a43.350032 43.350032 0 0 0 43.350032 43.350032h537.504268a43.350032 43.350032 0 0 0 43.350032-43.350032v-25.540393l209.452903 66.838524a43.328357 43.328357 0 0 0 56.528442-41.298131V309.331377a43.350032 43.350032 0 0 0-17.780738-35.005151z" fill="#ffffff" p-id="6425"></path></svg>